# xmcd
#
# Track frame offsets:
#	150
#	16582
#	59292
#	72444
#	95873
#	114575
#	126717
#	145142
#	168141
#	187538
#	200248
#	220040
#
# Disc length: 3151 seconds
#
# Revision: 0
# Processed by: cddbd v1.5.1PL0 Copyright (c) Steve Scherf et al.
# Submitted via: dBpowerAMP V4.0
#
DISCID=ae0c4d0c
DTITLE=Pierre Eliane - Poésie -Ste Thérese de L
DYEAR=1900
DGENRE=
TTITLE0=Chant de reconnaissance de la fiancée de Jesus
TTITLE1=Sainte Cécile
TTITLE2=Glose sur le Divin #2
TTITLE3=A mes petits frères du ciel
TTITLE4=La rosée divine ou le lait virginal
TTITLE5=A Jeanne d'Arc
TTITLE6=L'atome de Jésus Hostie
TTITLE7=Au Sacré coeur de Jésus
TTITLE8=Jésus à Bethanie (extrait)
TTITLE9=Jeter des fleurs #2
TTITLE10=Le ciel en est le prix
TTITLE11=Chant de reconnaissance à Notre Dame du Mt Carmel
EXTD=
EXTT0=
EXTT1=
EXTT2=
EXTT3=
EXTT4=
EXTT5=
EXTT6=
EXTT7=
EXTT8=
EXTT9=
EXTT10=
EXTT11=
PLAYORDER=
